TITLE ""
FILE "Disc4Track07.mp3" MP3
  TRACK 01 AUDIO
    TITLE "Disc4Track07_01"
    INDEX 01 00:00:00
  TRACK 02 AUDIO
    TITLE "Disc4Track07_02"
    INDEX 01 00:01:14
  TRACK 03 AUDIO
    TITLE "Disc4Track07_03"
    INDEX 01 00:03:15
  TRACK 04 AUDIO
    TITLE "Disc4Track07_04"
    INDEX 01 00:04:39
  TRACK 05 AUDIO
    TITLE "Disc4Track07_05"
    INDEX 01 00:08:20
  TRACK 06 AUDIO
    TITLE "Disc4Track07_06"
    INDEX 01 00:08:51
  TRACK 07 AUDIO
    TITLE "Disc4Track07_07"
    INDEX 01 00:09:68
  TRACK 08 AUDIO
    TITLE "Disc4Track07_08"
    INDEX 01 00:12:13
  TRACK 09 AUDIO
    TITLE "Disc4Track07_09"
    INDEX 01 00:13:29
  TRACK 10 AUDIO
    TITLE "Disc4Track07_10"
    INDEX 01 00:19:17
  TRACK 11 AUDIO
    TITLE "Disc4Track07_11"
    INDEX 01 00:19:43
  TRACK 12 AUDIO
    TITLE "Disc4Track07_12"
    INDEX 01 00:20:68
  TRACK 13 AUDIO
    TITLE "Disc4Track07_13"
    INDEX 01 00:22:73
  TRACK 14 AUDIO
    TITLE "Disc4Track07_14"
    INDEX 01 00:24:19
  TRACK 15 AUDIO
    TITLE "Disc4Track07_15"
    INDEX 01 00:26:23
  TRACK 16 AUDIO
    TITLE "Disc4Track07_16"
    INDEX 01 00:26:63
  TRACK 17 AUDIO
    TITLE "Disc4Track07_17"
    INDEX 01 00:29:34
  TRACK 18 AUDIO
    TITLE "Disc4Track07_18"
    INDEX 01 00:32:36
  TRACK 19 AUDIO
    TITLE "Disc4Track07_19"
    INDEX 01 00:35:05
  TRACK 20 AUDIO
    TITLE "Disc4Track07_20"
    INDEX 01 00:39:63
  TRACK 21 AUDIO
    TITLE "Disc4Track07_21"
    INDEX 01 00:40:20
  TRACK 22 AUDIO
    TITLE "Disc4Track07_22"
    INDEX 01 00:41:41
  TRACK 23 AUDIO
    TITLE "Disc4Track07_23"
    INDEX 01 00:43:67
  TRACK 24 AUDIO
    TITLE "Disc4Track07_24"
    INDEX 01 00:45:13
  TRACK 25 AUDIO
    TITLE "Disc4Track07_25"
    INDEX 01 00:47:61
  TRACK 26 AUDIO
    TITLE "Disc4Track07_26"
    INDEX 01 00:48:17
  TRACK 27 AUDIO
    TITLE "Disc4Track07_27"
    INDEX 01 00:49:46
  TRACK 28 AUDIO
    TITLE "Disc4Track07_28"
    INDEX 01 00:50:40
  TRACK 29 AUDIO
    TITLE "Disc4Track07_29"
    INDEX 01 00:51:72
  TRACK 30 AUDIO
    TITLE "Disc4Track07_30"
    INDEX 01 00:52:31
  TRACK 31 AUDIO
    TITLE "Disc4Track07_31"
    INDEX 01 00:53:59
  TRACK 32 AUDIO
    TITLE "Disc4Track07_32"
    INDEX 01 00:56:25
  TRACK 33 AUDIO
    TITLE "Disc4Track07_33"
    INDEX 01 00:57:51
  TRACK 34 AUDIO
    TITLE "Disc4Track07_34"
    INDEX 01 01:02:17
  TRACK 35 AUDIO
    TITLE "Disc4Track07_35"
    INDEX 01 01:02:51
  TRACK 36 AUDIO
    TITLE "Disc4Track07_36"
    INDEX 01 01:04:18
  TRACK 37 AUDIO
    TITLE "Disc4Track07_37"
    INDEX 01 01:07:15
  TRACK 38 AUDIO
    TITLE "Disc4Track07_38"
    INDEX 01 01:08:57
  TRACK 39 AUDIO
    TITLE "Disc4Track07_39"
    INDEX 01 01:12:74
  TRACK 40 AUDIO
    TITLE "Disc4Track07_40"
    INDEX 01 01:13:31
  TRACK 41 AUDIO
    TITLE "Disc4Track07_41"
    INDEX 01 01:15:04
  TRACK 42 AUDIO
    TITLE "Disc4Track07_42"
    INDEX 01 01:16:60
  TRACK 43 AUDIO
    TITLE "Disc4Track07_43"
    INDEX 01 01:18:32
  TRACK 44 AUDIO
    TITLE "Disc4Track07_44"
    INDEX 01 01:20:31
